<?xml version="1.0" encoding="UTF-8" standalone="no"?>
<!DOCTYPE svg PUBLIC "-//W3C//DTD SVG 1.1//EN" "http://www.w3.org/Graphics/SVG/1.1/DTD/svg11.dtd">
<svg width="100%" height="100%" viewBox="0 0 3114 281" version="1.1" xmlns="http://www.w3.org/2000/svg" xmlns:xlink="http://www.w3.org/1999/xlink" xml:space="preserve" xmlns:serif="http://www.serif.com/" style="fill-rule:evenodd;clip-rule:evenodd;stroke-linejoin:round;stroke-miterlimit:2;">
    <g transform="matrix(1,0,0,1,-2848,-623)">
        <g transform="matrix(1,0,0,1,-0.833984,-0)">
            <g transform="matrix(1,0,0,1,0.833984,0)">
                <g transform="matrix(1.017587,0,0,0.201605,-50.016565,497.400057)">
                    <path d="M3020.63,623L3020.63,812.64L2957.147,812.64L2957.147,1693.995L2912.521,1693.995L2912.521,812.64L2848.75,812.64L2848.75,623L3020.63,623Z" style="fill-rule:nonzero;"/>
                    <path d="M3170.283,1228.977L3170.283,1693.995L3128.393,1693.995L3128.393,1212.265C3128.393,1169.638 3126.953,1135.247 3124.074,1109.089C3120.332,1072.275 3113.23,1053.868 3102.769,1053.868C3091.925,1053.868 3083.696,1072.154 3078.082,1108.726C3072.467,1145.298 3069.66,1197.491 3069.66,1265.306L3069.66,1693.995L3028.778,1693.995L3028.778,626.633L3069.66,626.633L3069.66,1005.187C3075.61,959.169 3082.496,927.078 3090.318,908.913C3098.139,890.749 3106.368,881.666 3115.005,881.666C3124.698,881.666 3133.503,890.143 3141.421,907.097C3149.338,924.051 3155.84,949.966 3160.926,984.842C3165.245,1014.39 3167.884,1044.786 3168.844,1076.029C3169.803,1107.273 3170.283,1158.255 3170.283,1228.977Z" style="fill-rule:nonzero;"/>
                    <path d="M3324.687,1002.28C3337.931,1086.081 3344.552,1185.139 3344.552,1299.456C3344.552,1415.711 3337.931,1515.132 3324.687,1597.722C3311.443,1680.311 3291.338,1721.605 3264.371,1721.605C3237.404,1721.605 3217.298,1680.311 3204.055,1597.722C3190.811,1515.132 3184.189,1415.711 3184.189,1299.456C3184.189,1185.139 3190.811,1086.081 3204.055,1002.28C3217.298,918.48 3237.404,876.58 3264.371,876.58C3291.338,876.58 3311.443,918.48 3324.687,1002.28ZM3264.227,1051.689C3252.231,1051.689 3242.994,1073.123 3236.516,1115.992C3230.038,1158.861 3226.799,1220.015 3226.799,1299.456C3226.799,1378.897 3230.038,1440.172 3236.516,1483.284C3242.994,1526.395 3252.231,1547.95 3264.227,1547.95C3276.223,1547.95 3285.436,1526.395 3291.866,1483.284C3298.296,1440.172 3301.511,1378.897 3301.511,1299.456C3301.511,1220.015 3298.296,1158.861 3291.866,1115.992C3285.436,1073.123 3276.223,1051.689 3264.227,1051.689Z" style="fill-rule:nonzero;"/>
                    <path d="M3447.277,1119.988C3443.822,1081.721 3437.056,1062.587 3426.98,1062.587C3415.272,1062.587 3407.402,1081.721 3403.371,1119.988C3401.164,1141.786 3400.061,1174.24 3400.061,1217.351L3400.061,1693.995L3358.458,1693.995L3358.458,903.464L3398.333,903.464L3398.333,1018.992C3403.419,977.819 3408.218,948.513 3412.728,931.075C3420.694,900.073 3431.01,884.573 3443.678,884.573C3455.674,884.573 3465.367,897.894 3472.757,924.535C3478.707,949.239 3483.217,980.967 3486.288,1019.719C3491.662,973.217 3498.332,939.067 3506.298,917.269C3514.743,895.472 3524.148,884.573 3534.512,884.573C3541.422,884.573 3548.236,891.354 3554.954,904.917C3561.671,918.48 3567.765,942.216 3573.236,976.123C3577.65,1003.734 3580.625,1037.641 3582.161,1077.846C3583.12,1104.488 3583.6,1143.481 3583.6,1194.827L3583.312,1693.995L3541.278,1693.995L3541.278,1189.741C3541.278,1159.708 3540.319,1135.004 3538.399,1115.629C3534.752,1078.815 3528.035,1060.408 3518.246,1060.408C3506.921,1060.408 3499.1,1084.143 3494.781,1131.614C3492.574,1156.802 3491.471,1187.077 3491.471,1222.437L3491.471,1693.995L3450.156,1693.995L3450.156,1222.437C3450.156,1175.451 3449.196,1141.301 3447.277,1119.988Z" style="fill-rule:nonzero;"/>
                    <path d="M3612.477,987.749C3623.322,917.996 3641.94,883.12 3668.331,883.12C3685.509,883.12 3700.768,900.315 3714.108,934.707C3727.447,969.099 3734.117,1034.008 3734.117,1129.434L3734.117,1492.729C3734.117,1517.918 3734.213,1548.435 3734.405,1584.28C3734.693,1611.406 3735.509,1629.813 3736.852,1639.501C3738.196,1649.188 3740.211,1657.181 3742.898,1663.478L3742.898,1693.995L3698.273,1693.995C3697.025,1678.01 3696.162,1662.994 3695.682,1648.946C3695.202,1634.899 3694.818,1618.914 3694.53,1600.991C3688.868,1631.992 3682.342,1658.392 3674.953,1680.19C3666.124,1705.863 3656.143,1718.699 3645.011,1718.699C3630.807,1718.699 3619.075,1698.233 3609.814,1657.302C3600.553,1616.371 3595.923,1558.365 3595.923,1483.284C3595.923,1385.92 3603.36,1315.441 3618.235,1271.846C3626.393,1248.11 3638.389,1231.157 3654.224,1220.984L3668.187,1212.265C3675.768,1207.421 3681.191,1201.366 3684.454,1194.1C3690.308,1181.506 3693.235,1161.888 3693.235,1135.247C3693.235,1102.792 3691.003,1080.389 3686.541,1068.037C3682.078,1055.685 3675.529,1049.509 3666.891,1049.509C3657.199,1049.509 3650.337,1061.619 3646.306,1085.838C3643.427,1103.761 3641.508,1127.981 3640.548,1158.497L3600.961,1158.497C3601.825,1089.229 3605.663,1032.313 3612.477,987.749ZM3642.995,1544.317C3646.834,1560.302 3651.536,1568.295 3657.103,1568.295C3665.932,1568.295 3674.065,1555.216 3681.503,1529.059C3688.94,1502.901 3692.803,1455.189 3693.091,1385.92L3693.091,1308.902C3690.5,1317.136 3687.884,1323.797 3685.245,1328.883C3682.606,1333.969 3678.983,1338.692 3674.377,1343.052L3665.164,1351.771C3656.527,1359.521 3650.337,1368.967 3646.594,1380.108C3640.26,1398.999 3637.093,1428.305 3637.093,1468.025C3637.093,1503.386 3639.06,1528.817 3642.995,1544.317Z" style="fill-rule:nonzero;"/>
                    <path d="M3863.905,938.34C3876.189,978.061 3883.243,1046.36 3885.066,1143.239L3844.04,1143.239C3843.464,1116.597 3841.976,1095.526 3839.577,1080.026C3835.067,1051.931 3827.389,1037.883 3816.545,1037.883C3807.62,1037.883 3801.262,1044.907 3797.471,1058.954C3793.68,1073.002 3791.785,1089.471 3791.785,1108.363C3791.785,1132.098 3793.8,1149.294 3797.831,1159.951C3801.861,1171.092 3816.113,1190.225 3840.585,1217.351C3856.899,1236.727 3869.135,1266.033 3877.293,1305.269C3885.354,1344.989 3889.385,1394.639 3889.385,1454.22C3889.385,1532.692 3883.603,1596.753 3872.038,1646.403C3860.474,1696.054 3842.6,1720.879 3818.416,1720.879C3793.752,1720.879 3775.542,1694.6 3763.786,1642.044C3752.03,1589.487 3746.152,1522.519 3746.152,1441.141L3787.754,1441.141C3788.618,1477.955 3790.489,1504.112 3793.368,1519.613C3798.455,1547.224 3807.859,1561.029 3821.583,1561.029C3829.644,1561.029 3836.05,1554.974 3840.801,1542.864C3845.551,1530.754 3847.926,1512.589 3847.926,1488.37C3847.926,1465.119 3846.007,1447.438 3842.168,1435.329C3838.329,1423.219 3824.078,1402.39 3799.414,1372.842C3781.66,1350.56 3769.136,1322.707 3761.843,1289.284C3754.549,1256.345 3750.902,1208.874 3750.902,1146.872C3750.902,1073.729 3756.588,1010.878 3767.961,958.322C3779.333,905.765 3795.336,879.487 3815.969,879.487C3835.546,879.487 3851.525,899.105 3863.905,938.34Z" style="fill-rule:nonzero;"/>
                    <path d="M4181.925,623L4226.983,623L4167.242,1693.995L4124.92,1693.995L4099.297,1067.674L4091.811,860.595L4084.325,1067.674L4058.702,1693.995L4017.531,1693.995L3957.359,623L4004.432,623L4032.502,1236.243L4038.548,1406.991L4044.738,1239.876L4068.635,623L4115.419,623L4140.611,1236.243L4147.089,1406.991L4153.567,1242.782L4181.925,623Z" style="fill-rule:nonzero;"/>
                    <path d="M4230.812,987.749C4241.656,917.996 4260.274,883.12 4286.665,883.12C4303.844,883.12 4319.103,900.315 4332.442,934.707C4345.782,969.099 4352.452,1034.008 4352.452,1129.434L4352.452,1492.729C4352.452,1517.918 4352.548,1548.435 4352.74,1584.28C4353.028,1611.406 4353.843,1629.813 4355.187,1639.501C4356.53,1649.188 4358.546,1657.181 4361.233,1663.478L4361.233,1693.995L4316.608,1693.995C4315.36,1678.01 4314.496,1662.994 4314.016,1648.946C4313.537,1634.899 4313.153,1618.914 4312.865,1600.991C4307.203,1631.992 4300.677,1658.392 4293.287,1680.19C4284.458,1705.863 4274.477,1718.699 4263.345,1718.699C4249.142,1718.699 4237.41,1698.233 4228.149,1657.302C4218.888,1616.371 4214.257,1558.365 4214.257,1483.284C4214.257,1385.92 4221.695,1315.441 4236.57,1271.846C4244.727,1248.11 4256.723,1231.157 4272.558,1220.984L4286.521,1212.265C4294.103,1207.421 4299.525,1201.366 4302.788,1194.1C4308.642,1181.506 4311.569,1161.888 4311.569,1135.247C4311.569,1102.792 4309.338,1080.389 4304.875,1068.037C4300.413,1055.685 4293.863,1049.509 4285.226,1049.509C4275.533,1049.509 4268.671,1061.619 4264.641,1085.838C4261.762,1103.761 4259.842,1127.981 4258.883,1158.497L4219.296,1158.497C4220.159,1089.229 4223.998,1032.313 4230.812,987.749ZM4261.33,1544.317C4265.168,1560.302 4269.871,1568.295 4275.437,1568.295C4284.266,1568.295 4292.4,1555.216 4299.837,1529.059C4307.275,1502.901 4311.137,1455.189 4311.425,1385.92L4311.425,1308.902C4308.834,1317.136 4306.219,1323.797 4303.58,1328.883C4300.941,1333.969 4297.318,1338.692 4292.711,1343.052L4283.498,1351.771C4274.861,1359.521 4268.671,1368.967 4264.929,1380.108C4258.595,1398.999 4255.428,1428.305 4255.428,1468.025C4255.428,1503.386 4257.395,1528.817 4261.33,1544.317Z" style="fill-rule:nonzero;"/>
                    <path d="M4437.902,1486.19L4470.291,902.011L4513.909,902.011L4460.071,1680.916C4449.706,1831.078 4441.501,1924.203 4435.455,1960.29C4429.409,1996.378 4417.317,2014.421 4399.179,2014.421C4395.532,2014.421 4392.605,2014.3 4390.398,2014.058C4388.19,2013.816 4384.88,2012.968 4380.465,2011.515L4380.465,1845.852L4385.647,1847.306C4389.678,1848.274 4393.517,1847.548 4397.164,1845.126C4400.81,1842.704 4403.881,1837.133 4406.376,1828.414C4408.776,1820.179 4411.007,1802.983 4413.07,1776.826C4415.134,1750.669 4415.973,1734.684 4415.589,1728.871L4358.008,902.011L4403.641,902.011L4437.902,1486.19Z" style="fill-rule:nonzero;"/>
                    <path d="M4597.2,1055.322C4583.285,1055.322 4573.736,1085.112 4568.554,1144.692C4565.866,1176.178 4564.523,1216.383 4564.523,1265.306L4564.523,1693.995L4523.64,1693.995L4523.64,903.464L4563.227,903.464L4563.227,1018.992C4568.506,978.303 4573.496,948.997 4578.198,931.075C4586.644,899.105 4597.344,883.12 4610.3,883.12C4626.519,883.12 4639.786,904.554 4650.103,947.423C4660.419,990.292 4665.578,1061.376 4665.578,1160.677L4665.578,1693.995L4623.544,1693.995L4623.544,1212.265C4623.544,1170.607 4622.44,1138.637 4620.233,1116.355C4616.202,1075.666 4608.524,1055.322 4597.2,1055.322Z" style="fill-rule:nonzero;"/>
                    <path d="M4823.004,1461.486C4821.949,1508.472 4817.102,1556.185 4808.465,1604.624C4795.03,1681.643 4776.22,1720.152 4752.036,1720.152C4732.074,1720.152 4714.464,1687.698 4699.205,1622.789C4683.946,1557.88 4676.317,1452.282 4676.317,1305.995C4676.317,1168.912 4683.202,1063.798 4696.974,990.655C4710.745,917.511 4728.619,880.94 4750.596,880.94C4763.648,880.94 4775.404,893.292 4785.865,917.996C4796.325,942.7 4804.962,981.694 4811.776,1034.977C4817.918,1081.963 4821.901,1136.458 4823.724,1198.46C4824.78,1234.789 4825.212,1287.104 4825.02,1355.404L4717.631,1355.404C4718.207,1434.844 4723.149,1490.549 4732.458,1522.519C4738.12,1542.38 4744.934,1552.31 4752.899,1552.31C4761.345,1552.31 4768.206,1540.2 4773.485,1515.98C4776.364,1502.901 4778.907,1484.737 4781.114,1461.486L4823.004,1461.486ZM4782.41,1218.804C4781.738,1164.068 4778.451,1122.531 4772.549,1094.194C4766.647,1065.857 4759.329,1051.689 4750.596,1051.689C4741.095,1051.689 4733.73,1066.705 4728.499,1096.737C4723.269,1126.77 4719.982,1167.459 4718.639,1218.804L4782.41,1218.804Z" style="fill-rule:nonzero;"/>
                    <path d="M4948.992,1693.995L4907.677,1693.995L4907.677,623L4972.168,623L5010.748,1465.119L5049.039,623L5112.81,623L5112.81,1693.995L5071.496,1693.995L5071.496,969.584C5071.496,948.755 5071.544,919.57 5071.64,882.03C5071.736,844.489 5071.784,815.547 5071.784,795.202L5031.621,1693.995L4988.579,1693.995L4948.704,795.202C4948.704,815.547 4948.752,844.489 4948.848,882.03C4948.944,919.57 4948.992,948.755 4948.992,969.584L4948.992,1693.995Z" style="fill-rule:nonzero;"/>
                    <path d="M5141.831,987.749C5152.675,917.996 5171.293,883.12 5197.685,883.12C5214.863,883.12 5230.122,900.315 5243.462,934.707C5256.801,969.099 5263.471,1034.008 5263.471,1129.434L5263.471,1492.729C5263.471,1517.918 5263.567,1548.435 5263.759,1584.28C5264.047,1611.406 5264.863,1629.813 5266.206,1639.501C5267.55,1649.188 5269.565,1657.181 5272.252,1663.478L5272.252,1693.995L5227.627,1693.995C5226.379,1678.01 5225.515,1662.994 5225.036,1648.946C5224.556,1634.899 5224.172,1618.914 5223.884,1600.991C5218.222,1631.992 5211.696,1658.392 5204.306,1680.19C5195.477,1705.863 5185.497,1718.699 5174.364,1718.699C5160.161,1718.699 5148.429,1698.233 5139.168,1657.302C5129.907,1616.371 5125.276,1558.365 5125.276,1483.284C5125.276,1385.92 5132.714,1315.441 5147.589,1271.846C5155.746,1248.11 5167.742,1231.157 5183.577,1220.984L5197.541,1212.265C5205.122,1207.421 5210.544,1201.366 5213.807,1194.1C5219.661,1181.506 5222.588,1161.888 5222.588,1135.247C5222.588,1102.792 5220.357,1080.389 5215.895,1068.037C5211.432,1055.685 5204.882,1049.509 5196.245,1049.509C5186.552,1049.509 5179.69,1061.619 5175.66,1085.838C5172.781,1103.761 5170.861,1127.981 5169.902,1158.497L5130.315,1158.497C5131.178,1089.229 5135.017,1032.313 5141.831,987.749ZM5172.349,1544.317C5176.188,1560.302 5180.89,1568.295 5186.456,1568.295C5195.285,1568.295 5203.419,1555.216 5210.856,1529.059C5218.294,1502.901 5222.157,1455.189 5222.444,1385.92L5222.444,1308.902C5219.853,1317.136 5217.238,1323.797 5214.599,1328.883C5211.96,1333.969 5208.337,1338.692 5203.731,1343.052L5194.518,1351.771C5185.88,1359.521 5179.69,1368.967 5175.948,1380.108C5169.614,1398.999 5166.447,1428.305 5166.447,1468.025C5166.447,1503.386 5168.414,1528.817 5172.349,1544.317Z" style="fill-rule:nonzero;"/>
                    <path d="M5358.998,1055.322C5345.083,1055.322 5335.534,1085.112 5330.351,1144.692C5327.664,1176.178 5326.321,1216.383 5326.321,1265.306L5326.321,1693.995L5285.438,1693.995L5285.438,903.464L5325.025,903.464L5325.025,1018.992C5330.303,978.303 5335.294,948.997 5339.996,931.075C5348.441,899.105 5359.142,883.12 5372.098,883.12C5388.316,883.12 5401.584,904.554 5411.901,947.423C5422.217,990.292 5427.376,1061.376 5427.376,1160.677L5427.376,1693.995L5385.341,1693.995L5385.341,1212.265C5385.341,1170.607 5384.238,1138.637 5382.03,1116.355C5378,1075.666 5370.322,1055.322 5358.998,1055.322Z" style="fill-rule:nonzero;"/>
                    <path d="M5558.603,938.34C5570.887,978.061 5577.941,1046.36 5579.764,1143.239L5538.737,1143.239C5538.162,1116.597 5536.674,1095.526 5534.275,1080.026C5529.764,1051.931 5522.087,1037.883 5511.242,1037.883C5502.317,1037.883 5495.959,1044.907 5492.169,1058.954C5488.378,1073.002 5486.483,1089.471 5486.483,1108.363C5486.483,1132.098 5488.498,1149.294 5492.529,1159.951C5496.559,1171.092 5510.811,1190.225 5535.283,1217.351C5551.597,1236.727 5563.833,1266.033 5571.99,1305.269C5580.052,1344.989 5584.082,1394.639 5584.082,1454.22C5584.082,1532.692 5578.3,1596.753 5566.736,1646.403C5555.172,1696.054 5537.298,1720.879 5513.114,1720.879C5488.45,1720.879 5470.24,1694.6 5458.484,1642.044C5446.728,1589.487 5440.85,1522.519 5440.85,1441.141L5482.452,1441.141C5483.316,1477.955 5485.187,1504.112 5488.066,1519.613C5493.152,1547.224 5502.557,1561.029 5516.281,1561.029C5524.342,1561.029 5530.748,1554.974 5535.498,1542.864C5540.249,1530.754 5542.624,1512.589 5542.624,1488.37C5542.624,1465.119 5540.705,1447.438 5536.866,1435.329C5533.027,1423.219 5518.776,1402.39 5494.112,1372.842C5476.358,1350.56 5463.834,1322.707 5456.54,1289.284C5449.247,1256.345 5445.6,1208.874 5445.6,1146.872C5445.6,1073.729 5451.286,1010.878 5462.658,958.322C5474.031,905.765 5490.033,879.487 5510.667,879.487C5530.244,879.487 5546.223,899.105 5558.603,938.34Z" style="fill-rule:nonzero;"/>
                    <path d="M5730.569,1002.28C5743.812,1086.081 5750.434,1185.139 5750.434,1299.456C5750.434,1415.711 5743.812,1515.132 5730.569,1597.722C5717.325,1680.311 5697.22,1721.605 5670.253,1721.605C5643.285,1721.605 5623.18,1680.311 5609.936,1597.722C5596.693,1515.132 5590.071,1415.711 5590.071,1299.456C5590.071,1185.139 5596.693,1086.081 5609.936,1002.28C5623.18,918.48 5643.285,876.58 5670.253,876.58C5697.22,876.58 5717.325,918.48 5730.569,1002.28ZM5670.109,1051.689C5658.113,1051.689 5648.876,1073.123 5642.398,1115.992C5635.92,1158.861 5632.681,1220.015 5632.681,1299.456C5632.681,1378.897 5635.92,1440.172 5642.398,1483.284C5648.876,1526.395 5658.113,1547.95 5670.109,1547.95C5682.105,1547.95 5691.318,1526.395 5697.748,1483.284C5704.177,1440.172 5707.392,1378.897 5707.392,1299.456C5707.392,1220.015 5704.177,1158.861 5697.748,1115.992C5691.318,1073.123 5682.105,1051.689 5670.109,1051.689Z" style="fill-rule:nonzero;"/>
                    <path d="M5838.908,1055.322C5824.992,1055.322 5815.443,1085.112 5810.261,1144.692C5807.574,1176.178 5806.23,1216.383 5806.23,1265.306L5806.23,1693.995L5765.348,1693.995L5765.348,903.464L5804.935,903.464L5804.935,1018.992C5810.213,978.303 5815.203,948.997 5819.906,931.075C5828.351,899.105 5839.052,883.12 5852.007,883.12C5868.226,883.12 5881.494,904.554 5891.81,947.423C5902.127,990.292 5907.285,1061.376 5907.285,1160.677L5907.285,1693.995L5865.251,1693.995L5865.251,1212.265C5865.251,1170.607 5864.147,1138.637 5861.94,1116.355C5857.909,1075.666 5850.232,1055.322 5838.908,1055.322Z" style="fill-rule:nonzero;"/>
                </g>
            </g>
        </g>
    </g>
</svg>
